<svg width="36" height="36" viewBox="0 0 36 36" fill="none" xmlns="http://www.w3.org/2000/svg">
<path d="M2.59317 14.3026C-0.86439 17.7602 -0.86439 23.366 2.59317 26.8235C5.63934 29.8697 10.353 30.2321 13.796 27.9107L21.4465 35.5612C21.9893 36.1041 22.8692 36.1041 23.412 35.5612C23.9054 35.0679 23.9503 34.2957 23.5466 33.7516L23.412 33.5958L15.8317 26.0137C18.5523 22.5397 18.3131 17.5015 15.114 14.3026C11.6565 10.845 6.05071 10.845 2.59317 14.3026V14.3026ZM18.0232 0C9.47562 0 2.32142 5.96537 0.496666 13.9599C0.750245 13.6378 1.02565 13.3281 1.3222 13.0316C2.27185 12.0819 3.35619 11.3491 4.51374 10.8331C6.20876 7.62922 9.0132 5.10079 12.4152 3.75798L12.2231 4.07089C11.257 5.67703 10.4776 7.68603 9.93114 9.9649C10.8278 10.0571 11.7128 10.2606 12.5654 10.5769C13.7011 5.85409 15.842 2.69612 18.0232 2.69612L18.2309 2.70565C20.5056 2.91372 22.7027 6.51209 23.7233 11.6854L14.7404 11.6841C15.3215 12.0702 15.8729 12.5194 16.385 13.0316C16.8083 13.4549 17.189 13.9056 17.5265 14.3784L24.1288 14.3811C24.251 15.5319 24.3168 16.7357 24.3168 17.977C24.3168 19.8813 24.162 21.6972 23.886 23.3694L19.1311 23.3696C18.9914 23.8831 18.8122 24.3885 18.5937 24.8814L18.362 25.3697L18.1416 25.7819L18.4267 26.0642L23.3056 26.0648C22.9421 27.4101 22.4957 28.6128 21.9906 29.6318L23.9776 31.6227C24.8618 30.0806 25.5807 28.1922 26.0966 26.0666L30.9902 26.0651C29.3907 28.6241 27.0546 30.6755 24.2791 31.9227L24.6831 32.325L24.9071 32.5772C25.3032 33.1078 25.527 33.6991 25.5867 34.2896C31.7355 31.4351 36 25.204 36 17.977C36 8.04856 27.9515 0 18.0232 0V0ZM13.1486 16.268C15.5206 18.64 15.5206 22.4859 13.1486 24.858C10.7766 27.23 6.93069 27.23 4.55864 24.858C2.1866 22.4859 2.1866 18.64 4.55864 16.268C6.93069 13.896 10.7766 13.896 13.1486 16.268ZM26.8423 14.3821L32.8774 14.3809L32.8914 14.4351C33.1612 15.5718 33.3039 16.7578 33.3039 17.977C33.3039 19.875 32.9579 21.6924 32.3254 23.3692L26.6214 23.3708C26.8772 21.6645 27.0129 19.8517 27.0129 17.977C27.0129 16.7479 26.9547 15.5456 26.8423 14.3821V14.3821ZM23.6291 3.75787L23.6703 3.77355C27.3503 5.23794 30.3268 8.09106 31.9529 11.6857L26.4739 11.6847C25.9106 8.53485 24.9277 5.79267 23.6291 3.75787V3.75787Z" fill="#212121"/>
</svg>
